<svg width="187" height="75" viewBox="0 0 187 75" fill="none" xmlns="http://www.w3.org/2000/svg">
<path d="M127.424 21.8931L137.242 20.1345V57.8248H127.424V21.8931ZM141.758 21.8931V57.8248H151.581V20.1345L141.758 21.8931ZM113.438 57.8248H123.262V30.2594H113.438V57.8248ZM48.5312 34.1565C47.2877 34.0732 44.4156 33.8911 44.4156 31.3C44.4156 28.1783 48.552 28.1783 50.1077 28.1783C52.8392 28.1783 56.3721 28.9847 58.8955 29.7391C58.8955 29.7391 60.3055 30.2334 61.5022 30.7433L61.6115 30.7745V22.226L61.4606 22.1792C58.4845 21.1386 55.0193 20.1345 48.5988 20.1345C37.5217 20.1345 33.5986 26.5861 33.5986 32.1117C33.5986 35.2959 34.9618 42.7934 47.6415 43.6571C48.7185 43.7247 51.5697 43.886 51.5697 46.5604C51.5697 48.7664 49.2336 50.0724 45.3053 50.0724C41.0025 50.0724 36.8245 48.9745 34.2854 47.934V56.7426C38.0836 57.7364 42.3604 58.2358 47.3813 58.2358C58.2087 58.2358 63.0579 52.1328 63.0579 46.0869C63.0579 39.2294 57.6312 34.7756 48.5312 34.1617V34.1565ZM107.908 29.8536C98.8283 30.145 94.2237 34.2189 94.2237 42.3147V57.8248H104.13V45.1764C104.13 40.3272 104.765 38.2512 110.519 38.0535V29.9993C109.552 29.7912 107.913 29.8588 107.913 29.8588L107.908 29.8536ZM81.2631 30.2282C81.0446 30.7797 79.4733 35.2179 75.6699 39.8225V20.1345L65.5345 22.1376V57.8248H75.6699V46.7945C78.6044 51.1962 80.056 57.8248 80.056 57.8248H92.1945C90.9927 52.8352 85.7429 43.6259 85.7429 43.6259C90.4568 37.6477 92.5275 31.2792 92.8553 30.223H81.2631V30.2282ZM118.355 27.6163C121.029 27.6163 123.199 25.4519 123.199 22.7776C123.199 20.1032 121.029 17.9336 118.355 17.9336C115.681 17.9336 113.516 20.1032 113.516 22.7776C113.516 25.4519 115.686 27.6163 118.355 27.6163Z" fill="#862165"/>
</svg>
