<svg width="187" height="75" viewBox="0 0 187 75" fill="none" xmlns="http://www.w3.org/2000/svg">
<path d="M167.992 45.2328C165.493 45.2423 163.475 47.2757 163.484 49.7747C163.484 49.7779 163.484 49.7804 163.484 49.7829C163.47 52.2819 165.484 54.3191 167.983 54.3331C167.986 54.3331 167.989 54.3331 167.992 54.3331C170.478 54.3331 172.5 52.2946 172.5 49.7829C172.514 47.284 170.5 45.2468 168.001 45.2328C167.998 45.2328 167.995 45.2328 167.992 45.2328ZM153.157 41.7187C153.157 38.2764 150.243 35.4897 146.649 35.4897C143.054 35.4897 140.14 38.2809 140.14 41.7187C140.14 45.1566 143.058 47.944 146.652 47.944C150.247 47.944 153.156 45.1572 153.156 41.7187H153.157ZM153.183 29.6112H160.363V53.8217H153.183V52.2737C151.089 53.7188 148.605 54.4919 146.061 54.4894C139.07 54.4894 133.404 48.7717 133.404 41.7181C133.404 34.6645 139.071 28.9468 146.061 28.9468C148.704 28.9468 151.152 29.7631 153.183 31.1625V29.6106V29.6112ZM95.7032 32.7658V29.6151H88.3491V53.8211H95.7203V42.5172C95.7203 38.7026 99.8137 36.6559 102.656 36.6559H102.74V29.6151C99.822 29.6151 97.1451 30.8754 95.7032 32.7658ZM77.3838 41.7187C77.3838 38.2764 74.47 35.4897 70.8752 35.4897C67.2805 35.4897 64.3667 38.2809 64.3667 41.7187C64.3667 45.1566 67.2849 47.944 70.8791 47.944C74.4732 47.944 77.3832 45.1572 77.3832 41.7187H77.3838ZM77.4092 29.6112H84.5943V53.8217H77.4092V52.2737C75.379 53.6693 72.9308 54.4894 70.2877 54.4894C63.297 54.4894 57.6307 48.7717 57.6307 41.7181C57.6307 34.6645 63.2976 28.9468 70.2877 28.9468C72.9308 28.9468 75.379 29.7631 77.4092 31.1625V29.6106V29.6112ZM120.642 28.9639C117.774 28.9639 115.059 29.8603 113.241 32.3389V29.6157H106.09V53.8217H113.33V41.1013C113.33 37.422 115.775 35.6161 118.722 35.6161C121.877 35.6161 123.695 37.5192 123.695 41.0505V53.8217H130.868V38.4282C130.868 32.795 126.427 28.9639 120.642 28.9639H120.642ZM47.1685 53.8217H54.6877V18.8276H47.1685V53.8217ZM14.141 53.83H22.1042V18.8193H14.1448L14.1404 53.8306L14.141 53.83ZM41.992 18.8193C41.992 26.3976 39.0655 33.4512 33.8471 38.6912L44.8505 53.8306H35.0185L23.0634 37.3801L26.1507 35.0456C31.2465 31.2127 34.2295 25.1958 34.1939 18.8193H41.992Z" fill="#0A0B09"/>
</svg>
