<svg width="546" height="536" viewBox="0 0 546 536" fill="none" xmlns="http://www.w3.org/2000/svg">
<path d="M545.889 360.564H336.717V239.52H545.889V360.564ZM337.993 359.288H544.612V240.797H337.993V359.288Z" fill="#E0E0E0"/>
<path d="M502.737 304.062H364.731V308.108H502.737V304.062Z" fill="#F0F0F0"/>
<path d="M512.245 319.148H364.731V323.564H512.245V319.148Z" fill="#F0F0F0"/>
<path d="M512.245 334.413H364.731V338.829H512.245V334.413Z" fill="#F0F0F0"/>
<path d="M412.963 282.149H364.731V292.653H412.963V282.149Z" fill="#F0F0F0"/>
<path d="M545.251 240.159H337.393V259.431H545.251V240.159Z" fill="#E0E0E0"/>
<path d="M529.259 256.546C528.991 256.291 531.671 253.062 535.232 249.335C538.793 245.608 541.92 242.788 542.175 243.03C542.43 243.273 539.763 246.514 536.202 250.254C532.641 253.994 529.514 256.801 529.259 256.546Z" fill="white"/>
<path d="M542.201 256.546C541.945 256.801 538.831 253.994 535.257 250.254C531.684 246.515 529.016 243.286 529.284 243.03C529.552 242.775 532.654 245.583 536.227 249.335C539.801 253.087 542.443 256.291 542.201 256.546Z" fill="white"/>
<path d="M288.499 0.457764L80.6414 0.457764V120.238L288.499 120.238V0.457764Z" fill="#E6E6E6"/>
<path d="M245.998 64.3745L107.992 64.3745V68.4204L245.998 68.4204V64.3745Z" fill="#F0F0F0"/>
<path d="M255.506 79.4603L107.992 79.4603V83.8763L255.506 83.8763V79.4603Z" fill="#F0F0F0"/>
<path d="M255.506 94.7249L107.992 94.7249V99.1408L255.506 99.1408V94.7249Z" fill="#F0F0F0"/>
<path d="M156.223 42.4607H107.992V52.9646H156.223V42.4607Z" fill="#F0F0F0"/>
<path d="M288.499 0.457764L80.6414 0.457764V19.7298L288.499 19.7298V0.457764Z" fill="#E0E0E0"/>
<path d="M271.805 16.756C271.537 16.5136 274.217 13.2718 277.778 9.54499C281.339 5.81821 284.465 2.9976 284.721 3.25286C284.976 3.50812 282.308 6.73714 278.748 10.4639C275.187 14.1907 272.06 16.9858 271.805 16.756Z" fill="white"/>
<path d="M284.721 16.756C284.466 17.0113 281.351 14.2034 277.778 10.4639C274.204 6.72432 271.537 3.50806 271.805 3.25281C272.073 2.99755 275.174 5.80539 278.748 9.54493C282.321 13.2845 284.989 16.5135 284.721 16.756Z" fill="white"/>
<path d="M209.777 222.967H0.643066L0.643066 101.91L209.777 101.91V222.967ZM1.91936 221.69H208.5V103.187L1.91936 103.187L1.91936 221.69Z" fill="#E0E0E0"/>
<path d="M166.638 166.465H28.6323V170.511H166.638V166.465Z" fill="#F0F0F0"/>
<path d="M176.146 181.551H28.6323V185.967H176.146V181.551Z" fill="#F0F0F0"/>
<path d="M176.146 196.816H28.6323V201.232H176.146V196.816Z" fill="#F0F0F0"/>
<path d="M76.8635 144.551H28.6323V155.055H76.8635V144.551Z" fill="#F0F0F0"/>
<path d="M209.139 102.548L1.28149 102.548L1.28149 121.82L209.139 121.82V102.548Z" fill="#E0E0E0"/>
<path d="M451.137 250.701H205.705V470.428H451.137V250.701Z" fill="#E6E6E6"/>
<path d="M218.047 181.487H25.7861L25.7861 381.24H218.047V181.487Z" fill="#F0F0F0"/>
<path d="M218.047 181.487H25.7861V203.248H218.047V181.487Z" fill="#E0E0E0"/>
<path d="M41.6635 192.144C41.6285 192.934 41.3626 193.695 40.8987 194.334C40.4348 194.974 39.7934 195.463 39.0541 195.741C38.3147 196.019 37.51 196.074 36.7398 195.898C35.9696 195.723 35.2678 195.326 34.7215 194.755C34.1752 194.185 33.8084 193.466 33.6667 192.689C33.525 191.912 33.6147 191.11 33.9245 190.384C34.2343 189.657 34.7506 189.038 35.4095 188.602C36.0683 188.166 36.8406 187.933 37.6305 187.933C38.7228 187.959 39.7601 188.417 40.5158 189.207C41.2715 189.996 41.6841 191.052 41.6635 192.144Z" fill="white"/>
<path d="M58.0385 192.144C58.006 192.937 57.741 193.703 57.2765 194.346C56.8121 194.99 56.1687 195.482 55.4264 195.763C54.6841 196.044 53.8758 196.1 53.1018 195.924C52.3279 195.749 51.6227 195.35 51.0739 194.777C50.5251 194.204 50.1569 193.482 50.0152 192.701C49.8735 191.92 49.9646 191.115 50.277 190.385C50.5894 189.656 51.1095 189.035 51.7724 188.598C52.4353 188.162 53.2119 187.931 54.0054 187.933C55.0977 187.959 56.135 188.417 56.8907 189.207C57.6464 189.996 58.0591 191.052 58.0385 192.144Z" fill="white"/>
<path d="M74.4128 192.144C74.3802 192.937 74.1152 193.703 73.6508 194.346C73.1864 194.99 72.543 195.482 71.8007 195.763C71.0584 196.044 70.25 196.1 69.4761 195.924C68.7022 195.749 67.997 195.35 67.4482 194.777C66.8993 194.204 66.5312 193.482 66.3895 192.701C66.2478 191.92 66.3388 191.115 66.6513 190.385C66.9637 189.656 67.4837 189.035 68.1467 188.598C68.8096 188.162 69.5862 187.931 70.3797 187.933C71.472 187.959 72.5093 188.417 73.265 189.207C74.0207 189.996 74.4333 191.052 74.4128 192.144Z" fill="white"/>
<path d="M518.436 44.1454L273.004 44.1454V288.76H518.436V44.1454Z" fill="#F0F0F0"/>
<path d="M518.436 44.1454L273.004 44.1454V72.7982L518.436 72.7982V44.1454Z" fill="#E0E0E0"/>
<path d="M293.91 58.1846C293.865 59.2262 293.515 60.2317 292.903 61.0762C292.292 61.9207 291.446 62.567 290.47 62.9348C289.495 63.3026 288.433 63.3758 287.416 63.1452C286.399 62.9146 285.472 62.3905 284.751 61.6378C284.029 60.8852 283.545 59.9372 283.357 58.9115C283.17 57.8859 283.288 56.8278 283.696 55.8686C284.105 54.9094 284.787 54.0914 285.656 53.5161C286.526 52.9409 287.545 52.6337 288.588 52.6327C290.029 52.6662 291.398 53.2692 292.395 54.3097C293.393 55.3502 293.937 56.7435 293.91 58.1846Z" fill="white"/>
<path d="M313.909 54.4322C314.617 55.2006 315.083 56.1602 315.249 57.1914C315.415 58.2227 315.274 59.28 314.843 60.2316C314.412 61.1832 313.711 61.9871 312.827 62.543C311.943 63.099 310.914 63.3824 309.87 63.3581C308.826 63.3337 307.812 63.0026 306.954 62.406C306.097 61.8094 305.434 60.9737 305.048 60.003C304.663 59.0324 304.571 57.9696 304.785 56.9473C304.999 55.9249 305.509 54.988 306.252 54.2535C307.292 53.2637 308.682 52.7267 310.117 52.7601C311.553 52.7936 312.917 53.3949 313.909 54.4322Z" fill="white"/>
<path d="M337.023 58.1846C336.978 59.2262 336.628 60.2317 336.017 61.0762C335.405 61.9207 334.559 62.567 333.584 62.9348C332.608 63.3026 331.546 63.3758 330.529 63.1452C329.512 62.9146 328.585 62.3905 327.864 61.6378C327.142 60.8852 326.658 59.9372 326.47 58.9115C326.283 57.8859 326.401 56.8278 326.81 55.8686C327.218 54.9094 327.9 54.0914 328.769 53.5161C329.639 52.9409 330.658 52.6337 331.701 52.6327C333.142 52.6662 334.511 53.2692 335.508 54.3097C336.506 55.3502 337.051 56.7435 337.023 58.1846Z" fill="white"/>
<path d="M465.419 535.327C465.419 535.506 376.793 535.659 267.504 535.659C158.215 535.659 69.5508 535.506 69.5508 535.327C69.5508 535.148 158.164 534.995 267.504 534.995C376.844 534.995 465.419 535.161 465.419 535.327Z" fill="#263238"/>
<path d="M379.065 379.083C359.346 365.312 354.879 339.748 355.658 316.762C355.785 312.933 355.364 308.874 357.189 305.518C359.014 302.161 363.277 299.851 366.71 301.459C369.557 302.799 370.795 306.117 372.39 308.861C374.519 312.516 377.638 315.494 381.388 317.451C383.825 318.727 386.85 319.493 389.263 318.166C392.581 316.341 392.964 311.784 392.938 307.955C392.938 300.834 392.896 293.72 392.811 286.616C392.581 282.801 392.969 278.974 393.959 275.282C395.146 271.657 397.788 268.301 401.4 267.28C405.012 266.259 409.517 268.365 410.334 272.091C410.475 273.67 410.513 275.256 410.449 276.839C410.551 278.435 411.291 280.183 412.785 280.668C414.278 281.153 415.835 280.043 416.984 278.92C420.915 275.091 423.595 270.1 426.084 265.174C428.572 260.247 431.01 255.18 434.584 250.981C438.157 246.782 443.097 243.451 448.623 243.132C454.149 242.813 459.905 246.208 461.284 251.569C462.662 256.929 459.535 262.404 456.179 266.756C451.113 273.217 445.143 278.912 438.451 283.667C437.145 284.381 436.102 285.495 435.477 286.845C434.648 289.398 437.06 291.951 439.574 292.755C442.42 293.699 445.509 293.405 448.508 293.763C451.507 294.12 454.698 295.422 455.834 298.23C457.391 302.135 454.124 306.219 450.92 308.9C444.488 314.26 437.184 318.478 429.325 321.369C426.518 322.39 423.569 323.296 421.297 325.262C419.026 327.227 417.673 330.661 419.038 333.354C420.404 336.046 423.914 336.902 426.862 336.353C429.81 335.804 432.427 334.221 435.235 333.162C440.48 331.184 447.245 331.541 450.55 336.072C451.574 337.633 452.222 339.41 452.444 341.263C452.665 343.117 452.454 344.996 451.826 346.755C450.549 350.253 448.583 353.461 446.045 356.186C437.686 366.174 426.824 373.763 414.571 378.177C402.408 382.389 391.139 383.537 379.052 379.109" fill="#FD7401"/>
<path d="M455.668 246.285C455.668 246.285 455.553 246.412 455.298 246.642L454.162 247.65C453.166 248.544 451.699 249.846 449.848 251.569C444.601 256.44 439.729 261.701 435.273 267.305C432.427 270.841 429.478 274.848 426.339 279.2C423.199 283.552 419.957 288.249 416.741 293.24C413.312 298.502 410.172 303.947 407.335 309.551C405.854 312.473 404.552 315.524 403.212 318.638L399.256 328.146C394.04 340.123 389.498 352.382 385.65 364.865C382.551 375.079 380.414 385.561 379.269 396.173C378.527 403.334 378.407 410.547 378.912 417.729C379.116 420.282 379.307 422.235 379.486 423.562C379.562 424.2 379.614 424.711 379.665 425.081V425.604C379.61 425.438 379.571 425.267 379.55 425.093C379.486 424.723 379.409 424.226 379.307 423.587C379.077 422.311 378.835 420.295 378.605 417.742C377.989 410.546 378.032 403.309 378.733 396.122C379.807 385.464 381.897 374.934 384.974 364.674C388.79 352.155 393.319 339.866 398.541 327.865L402.6 318.395C403.94 315.294 405.254 312.218 406.748 309.283C409.605 303.662 412.77 298.204 416.23 292.933C419.498 287.828 422.791 283.208 425.892 278.894C428.993 274.58 431.993 270.547 434.826 267.024C439.327 261.435 444.265 256.211 449.593 251.403C451.482 249.705 452.988 248.429 454.009 247.574L455.196 246.616C455.341 246.49 455.499 246.379 455.668 246.285Z" fill="#263238"/>
<path d="M406.914 309.257C406.734 308.731 406.61 308.188 406.544 307.636C406.34 306.577 406.11 305.084 405.842 303.144C405.293 299.315 404.732 294.069 404.132 288.262C403.532 282.455 402.855 277.197 402.294 273.406C402 271.517 401.745 269.998 401.566 268.939C401.427 268.397 401.354 267.84 401.349 267.28C401.569 267.791 401.728 268.327 401.822 268.875C402.102 269.922 402.421 271.428 402.779 273.329C403.506 277.158 404.221 282.366 404.821 288.185C405.421 294.005 405.931 299.111 406.327 303.08C406.518 304.867 406.684 306.385 406.812 307.598C406.911 308.145 406.945 308.702 406.914 309.257Z" fill="#263238"/>
<path d="M456.026 300.093C455.405 300.228 454.772 300.305 454.137 300.323C452.86 300.438 451.048 300.591 448.802 300.846C444.309 301.331 438.132 302.225 431.355 303.501C424.578 304.777 418.49 306.219 414.112 307.33C411.93 307.891 410.168 308.402 409.007 308.747C408.387 308.967 407.745 309.121 407.093 309.206C407.682 308.909 408.297 308.666 408.93 308.479C410.13 308.057 411.866 307.47 414.036 306.845C418.388 305.569 424.476 304.05 431.278 302.748C437.041 301.646 442.855 300.837 448.7 300.323C450.959 300.132 452.784 300.055 454.06 300.029C454.716 299.985 455.374 300.006 456.026 300.093Z" fill="#263238"/>
<path d="M385.6 363.78C385.464 363.596 385.352 363.394 385.268 363.18L384.426 361.406C383.698 359.862 382.715 357.578 381.541 354.782C379.167 349.167 376.142 341.305 372.926 332.575C369.71 323.845 366.749 315.983 364.503 310.304C363.405 307.547 362.499 305.288 361.822 303.603L361.108 301.778C361.009 301.567 360.94 301.344 360.904 301.114C361.04 301.299 361.151 301.501 361.235 301.714L362.078 303.488C362.792 305.033 363.788 307.317 364.962 310.112C367.336 315.728 370.361 323.59 373.577 332.32C376.793 341.05 379.754 348.911 382.001 354.591C383.098 357.348 384.004 359.607 384.668 361.292C384.962 362.019 385.204 362.568 385.396 363.117C385.495 363.327 385.563 363.551 385.6 363.78Z" fill="#263238"/>
<path d="M450.793 342.76C450.588 342.877 450.37 342.967 450.142 343.028L448.253 343.666L441.272 345.925C435.375 347.839 427.232 350.571 418.298 353.583C409.364 356.595 401.183 359.275 395.248 361.062C392.287 361.968 389.875 362.657 388.203 363.117L386.276 363.614C386.052 363.686 385.821 363.733 385.587 363.755C385.791 363.638 386.01 363.547 386.238 363.487L388.127 362.849L395.108 360.59C401.005 358.675 409.147 355.944 418.081 352.932C427.015 349.92 435.184 347.24 441.118 345.453C444.092 344.547 446.492 343.857 448.176 343.398L450.104 342.9C450.328 342.829 450.559 342.782 450.793 342.76Z" fill="#263238"/>
<path d="M424.194 33.1693L417.621 35.5177L414.8 26.9282C409.619 11.0894 393.103 2.67861 377.928 8.02628C362.753 13.374 354.674 30.7443 359.856 46.5831L362.677 55.1726L356.078 57.5337C353.562 58.5096 351.519 60.4177 350.373 62.8611C349.227 65.3046 349.067 68.0956 349.926 70.654L368.216 126.543C368.595 127.809 369.226 128.987 370.069 130.005C370.913 131.023 371.953 131.861 373.126 132.469C374.3 133.078 375.585 133.444 376.903 133.546C378.221 133.649 379.546 133.485 380.8 133.065L448.916 108.7C451.465 107.726 453.537 105.801 454.697 103.33C455.856 100.86 456.012 98.0357 455.131 95.4524L436.829 39.5635C436.44 38.3006 435.8 37.129 434.948 36.1188C434.096 35.1085 433.049 34.2803 431.869 33.6836C430.69 33.0868 429.403 32.7337 428.084 32.6453C426.765 32.557 425.442 32.7352 424.194 33.1693ZM372.274 42.1033C370.877 37.985 371.128 33.4858 372.974 29.5482C374.82 25.6107 378.119 22.5404 382.178 20.9807C384.183 20.2948 386.305 20.0198 388.418 20.172C390.531 20.3242 392.592 20.9005 394.478 21.8665C396.363 22.8325 398.035 24.1685 399.393 25.7946C400.751 27.4208 401.768 29.3038 402.382 31.3314L405.19 39.9209L375.082 50.6928L372.274 42.1033ZM410.563 91.7001L415.234 105.969C415.32 106.255 415.293 106.563 415.157 106.83C415.022 107.096 414.789 107.3 414.507 107.399L407.96 109.734C407.699 109.806 407.421 109.775 407.183 109.647C406.945 109.518 406.766 109.302 406.683 109.045L401.974 94.8398C399.377 94.6983 396.885 93.7669 394.832 92.1702C392.78 90.5735 391.263 88.3879 390.487 85.9057C389.377 82.6243 389.58 79.0407 391.052 75.9052C392.525 72.7696 395.153 70.3254 398.387 69.0842C399.984 68.5386 401.674 68.3201 403.358 68.4417C405.041 68.5632 406.682 69.0224 408.184 69.7918C409.686 70.5611 411.017 71.625 412.099 72.9199C413.181 74.2149 413.991 75.7144 414.481 77.329C415.303 79.8504 415.37 82.5566 414.677 85.116C413.983 87.6753 412.558 89.9768 410.576 91.7384L410.563 91.7001Z" fill="#FD7401"/>
<path d="M417.328 35.3645C417.328 35.5432 405.139 40.1251 389.977 45.5749C374.814 51.0247 362.447 55.4023 362.383 55.2747C362.319 55.1471 374.572 50.5269 389.747 45.0644C404.922 39.6018 417.264 35.1986 417.328 35.3645Z" fill="#263238"/>
<path d="M431.801 37.7129C431.857 37.8237 431.904 37.9389 431.941 38.0575C432.043 38.3127 432.158 38.6446 432.311 39.053C432.643 39.9847 433.102 41.2737 433.677 42.8819L438.578 57.1508C440.62 63.2005 443.058 70.3732 445.763 78.3373C447.04 82.3321 448.546 86.4928 449.95 90.8705C450.701 93.1264 451.026 95.5026 450.907 97.8774C450.799 99.1124 450.447 100.314 449.873 101.413C449.26 102.508 448.441 103.474 447.461 104.259C445.489 105.698 443.3 106.814 440.977 107.564L434.404 109.926L421.96 114.38L400.889 121.884L386.658 126.888L382.829 128.164L381.808 128.496C381.699 128.544 381.583 128.574 381.464 128.585C381.464 128.585 381.566 128.585 381.783 128.432L382.778 128.036L386.607 126.594L400.761 121.387L421.795 113.729L434.213 109.236L440.786 106.862C443.043 106.143 445.168 105.061 447.078 103.659C447.99 102.931 448.752 102.034 449.324 101.017C449.865 100.001 450.19 98.8844 450.281 97.737C450.399 95.4488 450.087 93.1589 449.362 90.9854C447.984 86.646 446.529 82.447 445.215 78.4522C442.56 70.4754 440.109 63.2771 438.169 57.2274C436.229 51.1778 434.596 46.3151 433.473 42.8946C432.937 41.2227 432.528 39.9209 432.196 38.9764L431.89 37.9554C431.851 37.878 431.822 37.7967 431.801 37.7129Z" fill="#263238"/>
<path d="M395.86 20.1128C395.86 20.1128 395.183 19.781 393.933 19.2705C392.15 18.5855 390.264 18.2058 388.355 18.1473C385.526 18.0503 382.71 18.5821 380.11 19.7044C376.95 21.1019 374.247 23.3624 372.312 26.2263C370.365 29.082 369.32 32.4568 369.313 35.9134C369.34 38.7464 369.769 41.5612 370.589 44.2731C371.253 46.5959 371.942 48.4466 372.402 49.7356C372.673 50.3904 372.895 51.0644 373.065 51.7522C372.703 51.14 372.399 50.4947 372.159 49.825C371.636 48.5487 370.883 46.7363 370.143 44.4007C369.234 41.6603 368.739 38.7997 368.675 35.9134C368.641 32.3262 369.71 28.8153 371.738 25.8562C373.74 22.8876 376.553 20.5573 379.842 19.1428C382.523 18.0144 385.427 17.5166 388.33 17.6879C390.28 17.7873 392.196 18.2414 393.984 19.028C394.462 19.2485 394.922 19.5044 395.362 19.7938C395.544 19.8735 395.712 19.9812 395.86 20.1128Z" fill="#263238"/>
<path d="M396.448 70.0542C396.651 69.9308 396.865 69.8241 397.086 69.7351C397.725 69.4468 398.386 69.212 399.064 69.0332C400.14 68.7157 401.249 68.5271 402.37 68.4716C403.893 68.3897 405.418 68.6199 406.849 69.148C410.117 70.2967 413.116 73.6278 414.596 78.0821C415.306 80.4725 415.306 83.0176 414.596 85.408C413.809 88.0024 412.398 90.3644 410.487 92.2872L410.563 91.9426C412.261 96.6011 414.111 101.655 416.026 106.926L416.141 107.245L415.822 107.36L412.899 108.33L406.517 110.462L406.198 110.564L406.096 110.245C404.348 104.961 402.433 100.034 400.991 95.1972L401.272 95.4142C398.777 95.2069 396.398 94.2704 394.431 92.7212C392.651 91.3506 391.192 89.6084 390.155 87.616C389.22 85.8491 388.754 83.8714 388.803 81.8727C388.862 79.8299 389.372 77.8255 390.296 76.0029C391.221 74.1804 392.537 72.5848 394.15 71.3305C394.814 70.7914 395.56 70.3606 396.358 70.0542C395.637 70.4819 394.939 70.9463 394.265 71.4454C392.493 72.9448 391.135 74.874 390.321 77.0483C389.623 78.6879 389.296 80.4617 389.365 82.2425C389.433 84.0233 389.895 85.7668 390.717 87.348C391.737 89.2647 393.161 90.937 394.89 92.249C396.767 93.7215 399.035 94.6093 401.412 94.8015H401.629L401.693 94.993C403.097 99.7408 405.024 104.706 406.798 110.015L406.377 109.811L412.759 107.679L415.669 106.697L415.464 107.131C413.563 101.859 411.725 96.7926 410.04 92.1341V91.9426L410.193 91.7895C412.049 89.9464 413.432 87.6829 414.226 85.191C414.903 82.9045 414.903 80.4708 414.226 78.1842C412.835 73.8958 409.964 70.6413 406.849 69.4926C405.471 68.9611 403.999 68.7136 402.523 68.7651C401.42 68.7904 400.324 68.9403 399.255 69.2118C397.354 69.6841 396.46 70.118 396.448 70.0542Z" fill="#263238"/>
<path d="M356.997 438.571L229.508 437.984C222.146 437.944 215.101 434.983 209.92 429.751C204.739 424.52 201.846 417.447 201.876 410.084L203.229 90.4875C203.244 86.8399 203.978 83.2311 205.389 79.8673C206.799 76.5034 208.859 73.4506 211.45 70.8832C214.041 68.3158 217.113 66.2843 220.489 64.9047C223.866 63.5251 227.482 62.8245 231.129 62.843L358.605 63.4301C365.968 63.4673 373.014 66.425 378.198 71.6537C383.381 76.8825 386.277 83.9547 386.25 91.3171L384.897 410.901C384.882 414.55 384.148 418.16 382.738 421.525C381.328 424.891 379.269 427.945 376.678 430.514C374.087 433.084 371.016 435.118 367.639 436.5C364.262 437.883 360.646 438.586 356.997 438.571Z" fill="#455A64"/>
<path d="M358.414 74.4189L333.705 74.4189C332.898 74.4338 332.103 74.6075 331.364 74.9299C330.625 75.2523 329.956 75.7171 329.397 76.2979C328.838 76.8786 328.398 77.5639 328.103 78.3145C327.809 79.0652 327.665 79.8665 327.68 80.6727V85.1525C327.696 85.9581 327.552 86.7588 327.257 87.5087C326.962 88.2587 326.523 88.9431 325.963 89.5228C325.404 90.1026 324.735 90.5662 323.996 90.8872C323.257 91.2082 322.462 91.3803 321.656 91.3936L273.489 91.1766C271.86 91.1332 270.314 90.4448 269.192 89.2627C268.069 88.0805 267.462 86.5013 267.503 84.8717V80.392C267.544 78.7646 266.939 77.1872 265.819 76.0054C264.7 74.8237 263.157 74.1338 261.53 74.0871H252.839L231.205 73.985C226.06 73.9543 221.112 75.9638 217.445 79.5735C213.778 83.1832 211.69 88.0989 211.64 93.2442L210.363 405.196C210.352 407.749 210.843 410.279 211.809 412.641C212.775 415.004 214.197 417.154 215.994 418.967C217.79 420.78 219.926 422.222 222.28 423.21C224.634 424.197 227.159 424.712 229.712 424.723L356.933 425.31C359.487 425.322 362.019 424.831 364.383 423.864C366.748 422.897 368.899 421.474 370.713 419.677C372.528 417.879 373.97 415.741 374.958 413.386C375.947 411.03 376.461 408.503 376.473 405.949L377.749 93.9972C377.78 88.8374 375.76 83.8765 372.135 80.2052C368.509 76.5339 363.573 74.4526 358.414 74.4189Z" fill="white"/>
<path d="M341.299 383.69L246.7 383.282C245.717 383.282 244.926 382.21 244.938 380.908L245.04 356.161C245.04 354.884 245.845 353.787 246.827 353.787L341.426 354.221C341.971 354.315 342.458 354.616 342.786 355.06C343.114 355.505 343.258 356.059 343.188 356.607L343.098 381.329C343.098 382.644 342.281 383.703 341.299 383.69Z" fill="#FD7401"/>
<path d="M277.42 365.479C277.376 365.106 277.197 364.816 276.882 364.609C276.568 364.403 276.182 364.3 275.725 364.3C275.391 364.3 275.098 364.354 274.848 364.462C274.6 364.57 274.406 364.719 274.266 364.908C274.128 365.097 274.059 365.312 274.059 365.553C274.059 365.754 274.107 365.927 274.203 366.072C274.301 366.215 274.426 366.334 274.579 366.43C274.731 366.523 274.891 366.601 275.058 366.662C275.225 366.721 275.379 366.769 275.519 366.806L276.285 367.012C276.482 367.064 276.7 367.135 276.941 367.226C277.184 367.317 277.417 367.441 277.638 367.598C277.861 367.753 278.045 367.952 278.19 368.195C278.335 368.438 278.408 368.737 278.408 369.091C278.408 369.498 278.301 369.867 278.087 370.196C277.876 370.525 277.566 370.787 277.159 370.981C276.753 371.175 276.261 371.272 275.681 371.272C275.14 371.272 274.672 371.185 274.277 371.011C273.884 370.836 273.574 370.593 273.348 370.281C273.124 369.969 272.998 369.607 272.968 369.194H273.912C273.936 369.479 274.032 369.715 274.199 369.901C274.369 370.086 274.582 370.223 274.84 370.314C275.101 370.403 275.381 370.447 275.681 370.447C276.03 370.447 276.343 370.39 276.62 370.277C276.898 370.162 277.118 370.002 277.28 369.798C277.442 369.592 277.523 369.351 277.523 369.076C277.523 368.825 277.453 368.621 277.313 368.464C277.173 368.307 276.989 368.179 276.761 368.081C276.532 367.983 276.285 367.897 276.02 367.823L275.091 367.557C274.501 367.388 274.035 367.146 273.691 366.831C273.347 366.517 273.175 366.105 273.175 365.597C273.175 365.174 273.289 364.806 273.517 364.491C273.748 364.174 274.058 363.929 274.446 363.754C274.837 363.577 275.273 363.489 275.754 363.489C276.241 363.489 276.673 363.576 277.052 363.751C277.43 363.923 277.73 364.158 277.951 364.458C278.174 364.758 278.292 365.098 278.305 365.479H277.42ZM280.825 363.592V371.14H279.911V363.592H280.825ZM288.642 363.592V371.14H287.758L283.645 365.214H283.571V371.14H282.657V363.592H283.542L287.669 369.533H287.743V363.592H288.642ZM295.63 365.951C295.549 365.703 295.442 365.48 295.31 365.284C295.18 365.085 295.024 364.915 294.842 364.775C294.662 364.635 294.458 364.528 294.23 364.454C294.001 364.381 293.751 364.344 293.478 364.344C293.031 364.344 292.624 364.459 292.258 364.69C291.892 364.921 291.601 365.262 291.385 365.711C291.169 366.161 291.061 366.712 291.061 367.366C291.061 368.019 291.17 368.571 291.389 369.021C291.607 369.47 291.903 369.81 292.277 370.041C292.65 370.272 293.07 370.388 293.537 370.388C293.97 370.388 294.35 370.296 294.68 370.111C295.011 369.925 295.269 369.662 295.453 369.323C295.64 368.981 295.734 368.58 295.734 368.118L296.014 368.177H293.743V367.366H296.618V368.177C296.618 368.798 296.485 369.339 296.22 369.798C295.957 370.258 295.594 370.614 295.129 370.867C294.667 371.118 294.137 371.243 293.537 371.243C292.869 371.243 292.282 371.086 291.776 370.771C291.272 370.457 290.879 370.009 290.596 369.43C290.316 368.85 290.176 368.162 290.176 367.366C290.176 366.769 290.256 366.232 290.416 365.755C290.578 365.276 290.806 364.868 291.101 364.532C291.396 364.195 291.745 363.937 292.148 363.758C292.551 363.579 292.994 363.489 293.478 363.489C293.876 363.489 294.247 363.549 294.591 363.669C294.938 363.787 295.246 363.956 295.516 364.174C295.789 364.391 296.016 364.65 296.198 364.952C296.38 365.252 296.505 365.585 296.574 365.951H295.63ZM306.055 363.592H306.969V368.589C306.969 369.105 306.848 369.566 306.604 369.971C306.364 370.374 306.023 370.692 305.584 370.926C305.144 371.157 304.628 371.272 304.036 371.272C303.444 371.272 302.928 371.157 302.488 370.926C302.048 370.692 301.707 370.374 301.463 369.971C301.223 369.566 301.102 369.105 301.102 368.589V363.592H302.016V368.516C302.016 368.884 302.097 369.212 302.259 369.5C302.422 369.785 302.652 370.009 302.952 370.174C303.254 370.336 303.616 370.417 304.036 370.417C304.456 370.417 304.817 370.336 305.119 370.174C305.421 370.009 305.652 369.785 305.812 369.5C305.974 369.212 306.055 368.884 306.055 368.516V363.592ZM308.794 371.14V363.592H311.345C311.937 363.592 312.421 363.699 312.797 363.913C313.175 364.124 313.455 364.41 313.637 364.771C313.819 365.133 313.91 365.535 313.91 365.98C313.91 366.425 313.819 366.829 313.637 367.193C313.458 367.556 313.18 367.846 312.804 368.062C312.428 368.276 311.947 368.383 311.359 368.383H309.531V367.572H311.33C311.735 367.572 312.061 367.502 312.307 367.362C312.552 367.222 312.73 367.033 312.841 366.795C312.954 366.554 313.01 366.282 313.01 365.98C313.01 365.678 312.954 365.408 312.841 365.169C312.73 364.931 312.551 364.744 312.303 364.609C312.055 364.472 311.725 364.403 311.315 364.403H309.708V371.14H308.794Z" fill="#E8E8E3"/>
<path d="M265.569 166.121L232.743 165.972L232.715 171.996L265.541 172.145L265.569 166.121Z" fill="#FD7401"/>
<path opacity="0.1" d="M265.569 166.121L232.743 165.972L232.715 171.996L265.541 172.145L265.569 166.121Z" fill="black"/>
<path d="M361.796 203.108C362.053 203.082 362.307 203.021 362.549 202.929C362.902 202.791 363.209 202.556 363.435 202.251C363.661 201.946 363.796 201.584 363.825 201.206C363.825 199.177 363.825 196.216 363.825 192.412C363.825 190.511 363.825 188.379 363.825 186.031C363.825 185.456 363.825 184.857 363.825 184.257C363.908 183.675 363.781 183.082 363.468 182.585C363.292 182.346 363.063 182.152 362.8 182.017C362.536 181.882 362.245 181.81 361.949 181.806H359.958H341.515L234.766 181.411C234.493 181.406 234.223 181.467 233.978 181.59C233.734 181.712 233.522 181.891 233.362 182.113C233.054 182.612 232.936 183.205 233.03 183.785C233.03 185.061 233.03 186.337 233.03 187.613C233.03 190.166 233.03 192.719 233.03 195.271C233.03 196.547 233.03 197.824 233.03 199.1C232.977 199.694 232.977 200.292 233.03 200.887C233.097 201.142 233.222 201.378 233.395 201.577C233.567 201.776 233.783 201.933 234.026 202.036C234.277 202.136 234.547 202.183 234.817 202.176H241.313L269.66 202.329L317.649 202.623L350.003 202.878L358.796 202.98H361.081C361.604 202.98 361.859 202.98 361.859 202.98H361.081H358.796H350.003H317.649L269.66 202.827L241.313 202.712H234.817C234.46 202.726 234.103 202.666 233.771 202.533C233.435 202.39 233.136 202.172 232.897 201.895C232.658 201.619 232.485 201.291 232.392 200.938C232.318 200.603 232.293 200.259 232.316 199.917V198.972C232.316 197.696 232.316 196.42 232.316 195.144C232.316 192.591 232.316 190.038 232.316 187.486C232.316 186.209 232.316 184.933 232.316 183.657C232.291 183.317 232.291 182.976 232.316 182.636C232.363 182.26 232.509 181.904 232.737 181.602C232.957 181.294 233.248 181.044 233.586 180.873C233.924 180.701 234.298 180.615 234.677 180.619L341.426 181.206L359.868 181.334H361.859C362.21 181.334 362.556 181.419 362.867 181.581C363.178 181.744 363.445 181.978 363.646 182.266C364.006 182.821 364.151 183.488 364.055 184.142C364.055 184.742 364.055 185.342 364.055 185.916C364.055 188.239 364.055 190.37 364.055 192.297C364.055 196.126 363.965 199.062 363.94 201.104C363.909 201.496 363.766 201.872 363.528 202.186C363.291 202.501 362.969 202.741 362.6 202.878C362.358 203.028 362.08 203.107 361.796 203.108Z" fill="#E0E0E0"/>
<path d="M302.639 187.818H242.603V193.446H302.639V187.818Z" fill="#FD7401"/>
<path opacity="0.2" d="M302.639 187.818H242.603V193.446H302.639V187.818Z" fill="white"/>
<path d="M265.344 221.077L232.519 220.928L232.491 226.952L265.317 227.101L265.344 221.077Z" fill="#FD7401"/>
<path opacity="0.1" d="M265.344 221.077L232.519 220.928L232.491 226.952L265.317 227.101L265.344 221.077Z" fill="black"/>
<path d="M360.966 258.065C361.224 258.033 361.48 257.986 361.732 257.925C362.088 257.811 362.416 257.623 362.694 257.372C362.971 257.121 363.192 256.813 363.34 256.47C363.541 255.954 363.62 255.399 363.57 254.849C363.57 254.236 363.57 253.572 363.57 252.832C363.57 251.352 363.57 249.667 363.57 247.727V239.622C363.631 239.036 363.501 238.445 363.2 237.938C362.885 237.418 362.39 237.031 361.808 236.853C361.173 236.74 360.525 236.705 359.881 236.751H341.515L235.136 236.355C234.564 236.357 234.012 236.566 233.582 236.944C233.153 237.322 232.875 237.843 232.801 238.41C232.801 239.623 232.801 240.963 232.801 242.239C232.801 244.791 232.801 247.344 232.801 249.897C232.801 251.173 232.801 252.449 232.801 253.726C232.753 254.322 232.779 254.922 232.877 255.512C233.037 256.03 233.365 256.479 233.809 256.789C234.28 257.088 234.834 257.231 235.392 257.197H237.166H240.854L269.098 257.337L316.921 257.631L349.16 257.886L357.928 257.988H360.213H360.979H360.213H357.928H349.16H316.921L269.073 257.937L240.829 257.835H235.277C234.586 257.876 233.901 257.693 233.324 257.312C232.743 256.91 232.319 256.319 232.124 255.64C232.01 254.991 231.976 254.331 232.022 253.674C232.022 252.398 232.022 251.122 232.022 249.846C232.022 247.293 232.022 244.74 232.022 242.188C232.022 240.912 232.022 239.635 232.022 238.359C232.115 237.629 232.471 236.958 233.023 236.472C233.575 235.986 234.286 235.717 235.021 235.717L341.401 236.304L359.766 236.445C360.45 236.403 361.137 236.45 361.808 236.585C362.472 236.802 363.031 237.256 363.378 237.861C363.708 238.423 363.851 239.076 363.787 239.725C363.787 240.324 363.787 240.912 363.787 241.499C363.787 243.809 363.787 245.927 363.787 247.88C363.787 249.833 363.787 251.479 363.787 252.985C363.787 253.713 363.787 254.389 363.787 255.015C363.833 255.585 363.741 256.159 363.519 256.687C363.353 257.039 363.113 257.351 362.816 257.602C362.519 257.853 362.171 258.037 361.796 258.142C361.517 258.165 361.236 258.139 360.966 258.065Z" fill="#E0E0E0"/>
<path d="M265.097 278.419L232.271 278.27L232.244 284.294L265.07 284.443L265.097 278.419Z" fill="#FD7401"/>
<path opacity="0.1" d="M265.097 278.419L232.271 278.27L232.244 284.294L265.07 284.443L265.097 278.419Z" fill="black"/>
<path d="M360.711 315.383C360.969 315.353 361.225 315.306 361.477 315.243C361.832 315.13 362.159 314.943 362.436 314.695C362.713 314.446 362.934 314.141 363.085 313.801C363.285 313.285 363.364 312.731 363.315 312.18C363.315 311.554 363.315 310.904 363.315 310.151C363.315 308.683 363.315 306.985 363.315 305.045V296.941C363.376 296.354 363.246 295.763 362.945 295.256C362.622 294.746 362.129 294.366 361.553 294.184C360.918 294.066 360.271 294.028 359.626 294.069H341.26L234.881 293.674C234.309 293.675 233.757 293.884 233.327 294.262C232.898 294.64 232.62 295.161 232.546 295.728C232.546 297.005 232.546 298.281 232.546 299.557C232.546 302.11 232.546 304.662 232.546 307.215C232.546 308.491 232.546 309.768 232.546 311.044C232.498 311.636 232.524 312.232 232.622 312.818C232.775 313.339 233.104 313.79 233.554 314.094C234.022 314.4 234.578 314.544 235.137 314.503H240.688L268.933 314.656L316.755 314.949L348.995 315.205L357.763 315.307H360.047C360.558 315.307 360.813 315.307 360.813 315.307C360.813 315.307 360.558 315.307 360.047 315.307H357.763H348.995H316.755L268.933 315.166L240.688 315.052H235.137C234.446 315.098 233.759 314.914 233.184 314.528C232.603 314.126 232.179 313.535 231.984 312.856C231.87 312.208 231.835 311.548 231.882 310.891C231.882 309.614 231.882 308.338 231.882 307.062C231.882 304.509 231.882 301.957 231.882 299.404C231.882 298.128 231.882 296.852 231.882 295.511C231.972 294.783 232.326 294.112 232.875 293.626C233.425 293.139 234.134 292.87 234.868 292.87L341.248 293.457L359.613 293.597C360.297 293.555 360.984 293.602 361.656 293.737C362.319 293.954 362.878 294.409 363.225 295.014C363.556 295.576 363.699 296.228 363.634 296.877C363.634 297.477 363.634 298.077 363.634 298.651C363.634 300.961 363.634 303.08 363.634 305.033C363.634 306.985 363.634 308.632 363.634 310.138C363.634 310.865 363.634 311.542 363.634 312.167C363.683 312.738 363.591 313.312 363.366 313.839C363.2 314.191 362.96 314.503 362.663 314.755C362.366 315.006 362.018 315.19 361.643 315.294C361.344 315.396 361.024 315.427 360.711 315.383Z" fill="#E0E0E0"/>
<path d="M301.358 244.366L241.322 244.094L241.296 249.722L301.333 249.995L301.358 244.366Z" fill="#FD7401"/>
<path opacity="0.2" d="M301.358 244.366L241.322 244.094L241.296 249.722L301.333 249.995L301.358 244.366Z" fill="white"/>
<path d="M246.751 304.969C246.713 305.482 246.525 305.973 246.211 306.381C245.897 306.789 245.47 307.095 244.983 307.263C244.496 307.43 243.971 307.451 243.473 307.322C242.974 307.194 242.524 306.922 242.179 306.54C241.834 306.159 241.608 305.684 241.53 305.175C241.452 304.666 241.525 304.146 241.74 303.678C241.955 303.21 242.302 302.816 242.739 302.544C243.176 302.272 243.683 302.134 244.198 302.148C244.909 302.188 245.576 302.506 246.054 303.034C246.531 303.562 246.782 304.257 246.751 304.969Z" fill="#FD7401"/>
<path d="M254.881 305.007C254.906 305.367 254.857 305.728 254.736 306.068C254.616 306.408 254.427 306.72 254.181 306.983C253.935 307.247 253.637 307.457 253.306 307.601C252.975 307.745 252.619 307.819 252.258 307.819C251.897 307.819 251.54 307.745 251.21 307.601C250.879 307.457 250.581 307.247 250.335 306.983C250.089 306.72 249.9 306.408 249.78 306.068C249.659 305.728 249.61 305.367 249.635 305.007C249.61 304.647 249.659 304.286 249.78 303.946C249.9 303.606 250.089 303.295 250.335 303.031C250.581 302.767 250.879 302.557 251.21 302.413C251.54 302.269 251.897 302.195 252.258 302.195C252.619 302.195 252.975 302.269 253.306 302.413C253.637 302.557 253.935 302.767 254.181 303.031C254.427 303.295 254.616 303.606 254.736 303.946C254.857 304.286 254.906 304.647 254.881 305.007Z" fill="#FD7401"/>
<path d="M263.023 305.045C262.986 305.559 262.798 306.05 262.484 306.458C262.17 306.865 261.743 307.172 261.256 307.339C260.769 307.507 260.244 307.527 259.746 307.399C259.247 307.271 258.797 306.999 258.452 306.617C258.107 306.235 257.881 305.761 257.803 305.252C257.725 304.743 257.797 304.223 258.012 303.755C258.227 303.287 258.575 302.893 259.012 302.621C259.449 302.349 259.956 302.211 260.471 302.225C261.181 302.268 261.846 302.587 262.323 303.114C262.8 303.641 263.051 304.335 263.023 305.045Z" fill="#FD7401"/>
<path d="M271.154 305.084C271.116 305.597 270.928 306.088 270.614 306.496C270.3 306.904 269.873 307.21 269.386 307.378C268.9 307.545 268.374 307.566 267.876 307.437C267.377 307.309 266.928 307.037 266.582 306.655C266.237 306.274 266.011 305.799 265.933 305.29C265.855 304.782 265.928 304.261 266.143 303.793C266.358 303.325 266.705 302.931 267.142 302.659C267.579 302.387 268.086 302.249 268.601 302.263C269.311 302.306 269.976 302.625 270.453 303.152C270.93 303.68 271.182 304.373 271.154 305.084Z" fill="#FD7401"/>
<path d="M279.284 305.109C279.248 305.623 279.063 306.116 278.75 306.525C278.437 306.935 278.011 307.243 277.524 307.413C277.038 307.582 276.512 307.605 276.012 307.477C275.513 307.35 275.062 307.079 274.715 306.698C274.369 306.317 274.142 305.842 274.063 305.333C273.984 304.823 274.056 304.302 274.271 303.834C274.486 303.365 274.833 302.97 275.271 302.698C275.708 302.425 276.216 302.287 276.731 302.301C277.439 302.344 278.102 302.662 278.578 303.186C279.055 303.711 279.308 304.401 279.284 305.109Z" fill="#FD7401"/>
<path d="M287.426 305.147C287.391 305.659 287.208 306.149 286.898 306.557C286.588 306.966 286.166 307.275 285.682 307.446C285.199 307.618 284.677 307.644 284.179 307.523C283.681 307.401 283.229 307.136 282.879 306.761C282.53 306.386 282.298 305.917 282.211 305.412C282.125 304.906 282.188 304.387 282.393 303.917C282.599 303.447 282.937 303.047 283.366 302.767C283.795 302.487 284.297 302.338 284.81 302.339C285.529 302.366 286.208 302.677 286.698 303.203C287.188 303.729 287.45 304.428 287.426 305.147Z" fill="#FD7401"/>
<path d="M295.556 305.186C295.581 305.545 295.532 305.907 295.412 306.247C295.291 306.587 295.102 306.898 294.856 307.162C294.61 307.426 294.312 307.636 293.982 307.78C293.651 307.924 293.294 307.998 292.933 307.998C292.573 307.998 292.216 307.924 291.885 307.78C291.554 307.636 291.257 307.426 291.011 307.162C290.765 306.898 290.576 306.587 290.455 306.247C290.335 305.907 290.285 305.545 290.311 305.186C290.285 304.826 290.335 304.465 290.455 304.125C290.576 303.785 290.765 303.473 291.011 303.209C291.257 302.946 291.554 302.735 291.885 302.591C292.216 302.448 292.573 302.373 292.933 302.373C293.294 302.373 293.651 302.448 293.982 302.591C294.312 302.735 294.61 302.946 294.856 303.209C295.102 303.473 295.291 303.785 295.412 304.125C295.532 304.465 295.581 304.826 295.556 305.186Z" fill="#FD7401"/>
<path d="M303.686 305.224C303.651 305.735 303.468 306.226 303.158 306.634C302.848 307.043 302.426 307.352 301.943 307.523C301.459 307.695 300.937 307.721 300.439 307.599C299.941 307.477 299.489 307.213 299.14 306.838C298.79 306.463 298.558 305.994 298.472 305.488C298.385 304.983 298.449 304.463 298.654 303.993C298.859 303.524 299.197 303.124 299.626 302.844C300.055 302.563 300.557 302.415 301.07 302.416C301.789 302.443 302.468 302.753 302.958 303.279C303.449 303.806 303.71 304.505 303.686 305.224Z" fill="#FD7401"/>
<path d="M311.816 305.262C311.781 305.776 311.595 306.269 311.283 306.678C310.97 307.088 310.544 307.397 310.057 307.566C309.57 307.735 309.044 307.758 308.545 307.631C308.045 307.504 307.594 307.233 307.248 306.851C306.901 306.47 306.674 305.995 306.595 305.486C306.516 304.977 306.588 304.455 306.803 303.987C307.018 303.518 307.366 303.123 307.803 302.851C308.241 302.579 308.748 302.441 309.264 302.454C309.971 302.497 310.634 302.815 311.111 303.339C311.588 303.864 311.841 304.554 311.816 305.262Z" fill="#FD7401"/>
<g opacity="0.2">
<path d="M246.751 304.969C246.713 305.482 246.525 305.973 246.211 306.381C245.897 306.789 245.47 307.095 244.983 307.263C244.496 307.43 243.971 307.451 243.473 307.322C242.974 307.194 242.524 306.922 242.179 306.54C241.834 306.159 241.608 305.684 241.53 305.175C241.452 304.666 241.525 304.146 241.74 303.678C241.955 303.21 242.302 302.816 242.739 302.544C243.176 302.272 243.683 302.134 244.198 302.148C244.909 302.188 245.576 302.506 246.054 303.034C246.531 303.562 246.782 304.257 246.751 304.969Z" fill="white"/>
<path d="M254.881 305.007C254.906 305.367 254.857 305.728 254.736 306.068C254.616 306.408 254.427 306.719 254.181 306.983C253.935 307.247 253.637 307.457 253.306 307.601C252.975 307.745 252.619 307.819 252.258 307.819C251.897 307.819 251.54 307.745 251.21 307.601C250.879 307.457 250.581 307.247 250.335 306.983C250.089 306.719 249.9 306.408 249.78 306.068C249.659 305.728 249.61 305.367 249.635 305.007C249.61 304.647 249.659 304.286 249.78 303.946C249.9 303.606 250.089 303.294 250.335 303.031C250.581 302.767 250.879 302.557 251.21 302.413C251.54 302.269 251.897 302.195 252.258 302.195C252.619 302.195 252.975 302.269 253.306 302.413C253.637 302.557 253.935 302.767 254.181 303.031C254.427 303.294 254.616 303.606 254.736 303.946C254.857 304.286 254.906 304.647 254.881 305.007Z" fill="white"/>
<path d="M263.023 305.045C262.986 305.559 262.798 306.05 262.484 306.457C262.17 306.865 261.743 307.172 261.256 307.339C260.769 307.506 260.244 307.527 259.746 307.399C259.247 307.271 258.797 306.999 258.452 306.617C258.107 306.235 257.881 305.761 257.803 305.252C257.725 304.743 257.797 304.222 258.012 303.755C258.227 303.287 258.575 302.893 259.012 302.621C259.449 302.349 259.956 302.211 260.471 302.225C261.181 302.267 261.846 302.587 262.323 303.114C262.8 303.641 263.051 304.335 263.023 305.045Z" fill="white"/>
<path d="M271.154 305.084C271.116 305.597 270.928 306.088 270.614 306.496C270.3 306.903 269.873 307.21 269.386 307.377C268.9 307.545 268.374 307.566 267.876 307.437C267.377 307.309 266.928 307.037 266.582 306.655C266.237 306.274 266.011 305.799 265.933 305.29C265.855 304.781 265.928 304.261 266.143 303.793C266.358 303.325 266.705 302.931 267.142 302.659C267.579 302.387 268.086 302.249 268.601 302.263C269.311 302.306 269.976 302.625 270.453 303.152C270.93 303.68 271.182 304.373 271.154 305.084Z" fill="white"/>
<path d="M279.284 305.109C279.248 305.623 279.063 306.116 278.75 306.525C278.437 306.935 278.011 307.243 277.524 307.413C277.038 307.582 276.512 307.605 276.012 307.477C275.513 307.35 275.062 307.079 274.715 306.698C274.369 306.317 274.142 305.842 274.063 305.333C273.984 304.823 274.056 304.302 274.271 303.834C274.486 303.365 274.833 302.97 275.271 302.698C275.708 302.425 276.216 302.287 276.731 302.301C277.439 302.344 278.102 302.662 278.578 303.186C279.055 303.711 279.308 304.401 279.284 305.109Z" fill="white"/>
<path d="M287.426 305.147C287.391 305.659 287.208 306.149 286.898 306.557C286.588 306.966 286.166 307.275 285.682 307.446C285.199 307.618 284.677 307.644 284.179 307.523C283.681 307.401 283.229 307.136 282.879 306.761C282.53 306.386 282.298 305.917 282.211 305.412C282.125 304.906 282.188 304.387 282.393 303.917C282.599 303.447 282.937 303.047 283.366 302.767C283.795 302.487 284.297 302.338 284.81 302.339C285.529 302.366 286.208 302.677 286.698 303.203C287.188 303.729 287.45 304.428 287.426 305.147Z" fill="white"/>
<path d="M295.556 305.186C295.581 305.545 295.532 305.907 295.412 306.247C295.291 306.587 295.102 306.898 294.856 307.162C294.61 307.426 294.312 307.636 293.982 307.78C293.651 307.924 293.294 307.998 292.933 307.998C292.573 307.998 292.216 307.924 291.885 307.78C291.554 307.636 291.257 307.426 291.011 307.162C290.765 306.898 290.576 306.587 290.455 306.247C290.335 305.907 290.285 305.545 290.311 305.186C290.285 304.826 290.335 304.465 290.455 304.125C290.576 303.785 290.765 303.473 291.011 303.209C291.257 302.946 291.554 302.735 291.885 302.591C292.216 302.448 292.573 302.373 292.933 302.373C293.294 302.373 293.651 302.448 293.982 302.591C294.312 302.735 294.61 302.946 294.856 303.209C295.102 303.473 295.291 303.785 295.412 304.125C295.532 304.465 295.581 304.826 295.556 305.186Z" fill="white"/>
<path d="M303.686 305.224C303.651 305.735 303.468 306.226 303.158 306.634C302.848 307.043 302.426 307.352 301.943 307.523C301.459 307.695 300.937 307.721 300.439 307.599C299.941 307.477 299.489 307.213 299.14 306.838C298.79 306.463 298.558 305.994 298.472 305.488C298.385 304.983 298.449 304.463 298.654 303.993C298.859 303.524 299.197 303.124 299.626 302.844C300.055 302.563 300.557 302.415 301.07 302.416C301.789 302.443 302.468 302.753 302.958 303.279C303.449 303.806 303.71 304.505 303.686 305.224Z" fill="white"/>
<path d="M311.816 305.262C311.781 305.776 311.595 306.269 311.283 306.678C310.97 307.088 310.544 307.397 310.057 307.566C309.57 307.735 309.044 307.758 308.545 307.631C308.045 307.504 307.594 307.233 307.248 306.851C306.901 306.47 306.674 305.995 306.595 305.486C306.516 304.977 306.588 304.455 306.803 303.987C307.018 303.518 307.366 303.123 307.803 302.851C308.241 302.579 308.748 302.441 309.264 302.454C309.971 302.497 310.634 302.815 311.111 303.339C311.588 303.864 311.841 304.554 311.816 305.262Z" fill="white"/>
</g>
<path d="M300.266 121.017C301.152 120.626 301.904 119.984 302.429 119.169C302.953 118.354 303.226 117.403 303.214 116.435C303.247 115.805 303.151 115.175 302.933 114.583C302.715 113.992 302.379 113.451 301.945 112.993C301.51 112.536 300.988 112.172 300.408 111.923C299.829 111.674 299.205 111.546 298.575 111.546C297.944 111.546 297.32 111.674 296.741 111.923C296.161 112.172 295.639 112.536 295.205 112.993C294.771 113.451 294.434 113.992 294.216 114.583C293.998 115.175 293.902 115.805 293.935 116.435C293.916 117.413 294.187 118.375 294.714 119.2C295.241 120.024 296 120.674 296.896 121.068C289.749 122.14 290.068 129.9 290.068 129.9L306.966 129.976C306.966 129.976 307.362 122.076 300.266 121.017Z" fill="#FD7401"/>
<path opacity="0.1" d="M300.266 121.017C301.152 120.626 301.904 119.984 302.429 119.169C302.953 118.354 303.226 117.403 303.214 116.435C303.247 115.805 303.151 115.175 302.933 114.583C302.715 113.992 302.379 113.451 301.945 112.993C301.51 112.536 300.988 112.172 300.408 111.923C299.829 111.674 299.205 111.546 298.575 111.546C297.944 111.546 297.32 111.674 296.741 111.923C296.161 112.172 295.639 112.536 295.205 112.993C294.771 113.451 294.434 113.992 294.216 114.583C293.998 115.175 293.902 115.805 293.935 116.435C293.916 117.413 294.187 118.375 294.714 119.2C295.241 120.024 296 120.674 296.896 121.068C289.749 122.14 290.068 129.9 290.068 129.9L306.966 129.976C306.966 129.976 307.362 122.076 300.266 121.017Z" fill="black"/>
<path d="M327.725 134.981L267.497 134.708L267.465 141.906L327.692 142.179L327.725 134.981Z" fill="#FD7401"/>
<path opacity="0.2" d="M327.725 134.981L267.497 134.708L267.465 141.906L327.692 142.179L327.725 134.981Z" fill="white"/>
<path d="M106.308 172.285H105.709L103.973 172.413C103.033 172.469 102.099 172.593 101.178 172.783C100.581 172.867 99.9886 172.982 99.4036 173.128L97.4254 173.676C94.0583 174.709 90.8815 176.283 88.0191 178.335C84.2373 181.08 81.0794 184.594 78.7532 188.647C77.3859 190.984 76.2979 193.472 75.5114 196.063C74.685 198.878 74.2092 201.784 74.0947 204.716C74.0187 206.256 74.0442 207.799 74.1713 209.336C74.1713 210.115 74.3883 210.893 74.4904 211.684C74.5763 212.482 74.7256 213.272 74.9371 214.046C76.0848 219.167 78.4134 223.949 81.7373 228.011C85.0612 232.073 89.2883 235.302 94.0815 237.44C97.5506 238.937 101.269 239.772 105.045 239.903C108.945 240.118 112.849 239.558 116.532 238.257L117.655 237.836H117.808L117.935 237.912L134.029 246.081L133.557 246.489C131.834 241.154 130.175 235.985 128.567 231.02V230.829L128.707 230.688C132.612 226.756 135.51 221.94 137.156 216.649C138.648 211.812 139.083 206.711 138.433 201.691C137.854 197.23 136.42 192.922 134.208 189.005C132.302 185.64 129.842 182.619 126.933 180.071C124.533 178.053 121.877 176.362 119.033 175.042C116.881 174.114 114.64 173.408 112.345 172.936L109.793 172.515L107.942 172.375L106.819 172.298H106.436C106.563 172.284 106.692 172.284 106.819 172.298H107.955L109.805 172.375L112.358 172.745C114.682 173.182 116.953 173.863 119.135 174.774C122.028 176.079 124.732 177.766 127.176 179.79C130.138 182.327 132.65 185.348 134.604 188.724C136.878 192.683 138.357 197.049 138.956 201.576C139.66 206.674 139.255 211.863 137.769 216.79C136.112 222.191 133.169 227.109 129.192 231.122L129.269 230.791C130.877 235.755 132.549 240.924 134.285 246.246L134.527 247.025L133.8 246.655L117.706 238.499H117.986L116.838 238.921C113.084 240.241 109.108 240.814 105.134 240.605C101.277 240.458 97.4808 239.593 93.9411 238.053C87.1891 235.161 81.5715 230.135 77.9491 223.745C76.2822 220.794 75.0648 217.611 74.3372 214.301C74.138 213.507 73.9888 212.701 73.8905 211.889C73.7884 211.085 73.6225 210.293 73.5842 209.502C73.2388 204.961 73.7188 200.394 75.0009 196.024C75.807 193.398 76.9253 190.879 78.332 188.52C80.7137 184.43 83.9374 180.893 87.7894 178.143C90.6988 176.086 93.9291 174.525 97.3488 173.523L99.3526 173.013C99.9424 172.876 100.539 172.769 101.139 172.694C102.071 172.521 103.013 172.419 103.96 172.387L105.709 172.324C105.907 172.297 106.108 172.284 106.308 172.285Z" fill="#FD7401"/>
<path d="M113.583 202.048H111.222L106.117 194.876V190.166C106.117 190.166 102.467 189.936 102.901 196.101C103.334 202.265 102.901 200.696 102.901 200.696C102.901 200.696 95.1534 200.696 94.5153 201.398C93.8771 202.099 93.8388 209.579 93.7495 213.752C93.7006 214.758 93.9892 215.752 94.5697 216.575C95.1501 217.398 95.9889 218.004 96.953 218.296C97.2232 218.371 97.5022 218.409 97.7826 218.411C99.7225 218.411 109.588 216.841 109.588 216.841H113.66L113.583 202.048Z" fill="#FD7401"/>
<path d="M120.335 200.785L118.88 216.917H114.847V201.117L120.335 200.785Z" fill="#FD7401"/>
<path d="M168.438 529.214V518.301L148.872 518.161L148.706 534.663L149.919 534.753C155.317 535.097 177.385 535.608 181.009 534.485C185.042 533.234 168.438 529.214 168.438 529.214Z" fill="#FD7401"/>
<path d="M181.469 533.464C181.469 533.642 174.143 533.795 165.119 533.795C156.096 533.795 148.77 533.642 148.77 533.464C148.77 533.285 156.096 533.132 165.119 533.132C174.143 533.132 181.469 533.285 181.469 533.464Z" fill="#263238"/>
<path d="M168.782 531.447C168.616 531.358 168.782 530.783 169.178 530.171C169.573 529.558 170.11 529.303 170.237 529.431C170.365 529.558 170.097 530.043 169.714 530.566C169.331 531.09 168.948 531.536 168.782 531.447Z" fill="#263238"/>
<path d="M170.033 532.162C169.854 532.162 169.943 531.447 170.326 530.771C170.709 530.094 171.22 529.686 171.36 529.788C171.5 529.89 171.271 530.464 170.913 531.064C170.556 531.664 170.199 532.226 170.033 532.162Z" fill="#263238"/>
<path d="M154.667 533.413C154.59 533.413 154.297 533.183 153.876 532.698C153.361 532.074 152.789 531.502 152.165 530.988C151.552 530.498 150.822 530.177 150.047 530.056C149.447 529.979 149.064 530.056 149.026 529.979C148.987 529.903 149.357 529.635 150.059 529.584C150.986 529.564 151.89 529.871 152.612 530.452C153.289 531.003 153.86 531.674 154.297 532.43C154.59 532.991 154.743 533.361 154.667 533.413Z" fill="#263238"/>
<path d="M168.846 529.392C168.935 529.545 168.603 529.928 168.042 530.132C167.48 530.337 166.983 530.26 166.957 530.132C166.931 530.005 167.327 529.737 167.812 529.558C168.297 529.379 168.744 529.239 168.846 529.392Z" fill="#263238"/>
<path d="M168.54 528.333C168.54 528.524 168.029 528.678 167.366 528.69C166.702 528.703 166.179 528.55 166.192 528.371C166.204 528.193 166.728 528.027 167.366 528.014C168.004 528.001 168.514 528.154 168.54 528.333Z" fill="#263238"/>
<path d="M216.618 529.214V518.301L197.052 518.161L196.886 534.497L198.099 534.587C203.498 534.931 225.578 535.608 229.189 534.485C233.223 533.234 216.618 529.214 216.618 529.214Z" fill="#FD7401"/>
<path d="M229.649 533.489C229.649 533.668 222.335 533.821 213.299 533.821C204.263 533.821 196.963 533.668 196.963 533.489C196.963 533.311 204.276 533.157 213.299 533.157C222.323 533.157 229.649 533.311 229.649 533.489Z" fill="#263238"/>
<path d="M216.963 531.447C216.809 531.358 216.963 530.783 217.358 530.171C217.754 529.558 218.29 529.303 218.417 529.431C218.545 529.558 218.277 530.043 217.894 530.566C217.511 531.09 217.128 531.536 216.963 531.447Z" fill="#263238"/>
<path d="M218.214 532.162C218.048 532.162 218.124 531.447 218.52 530.771C218.916 530.094 219.413 529.686 219.554 529.788C219.694 529.89 219.452 530.464 219.094 531.064C218.737 531.664 218.392 532.226 218.214 532.162Z" fill="#263238"/>
<path d="M202.847 533.413C202.77 533.413 202.489 533.183 202.056 532.698C201.541 532.074 200.969 531.502 200.345 530.988C199.732 530.498 199.002 530.177 198.227 530.056C197.64 529.979 197.244 530.056 197.206 529.979C197.167 529.903 197.537 529.635 198.239 529.584C199.166 529.564 200.069 529.871 200.792 530.452C201.472 531 202.044 531.671 202.477 532.43C202.77 532.991 202.923 533.361 202.847 533.413Z" fill="#263238"/>
<path d="M217.026 529.392C217.116 529.545 216.784 529.928 216.222 530.132C215.661 530.337 215.163 530.26 215.137 530.132C215.112 530.005 215.508 529.737 215.993 529.558C216.478 529.379 216.924 529.239 217.026 529.392Z" fill="#263238"/>
<path d="M216.745 528.333C216.745 528.524 216.235 528.678 215.571 528.69C214.907 528.703 214.397 528.55 214.41 528.371C214.422 528.193 214.933 528.027 215.571 528.014C216.209 528.001 216.745 528.154 216.745 528.333Z" fill="#263238"/>
<path d="M288.703 205.163C288.193 204.639 286.929 204.895 286.929 204.895C287.056 204.16 287.056 203.409 286.929 202.674C286.7 201.959 285.091 202.099 285.091 202.099C285.017 201.498 285.017 200.889 285.091 200.287C285.104 200.154 285.076 200.02 285.009 199.903C284.943 199.787 284.843 199.693 284.721 199.636C283.96 199.326 283.143 199.178 282.322 199.202C281.339 198.5 285.321 192.923 286.802 191.136C288.282 189.349 288.014 187.958 286.7 187.958C285.793 187.958 281.148 193.319 279.718 195.118C278.289 196.918 274.498 201.921 274.371 197.926C274.243 193.931 272.635 190.919 271.627 190.409C270.618 189.898 269.546 191.098 270.095 192.208C270.577 193.47 270.878 194.793 270.988 196.139C271.127 197.211 271.08 198.299 270.848 199.355C270.425 201.32 269.849 203.249 269.125 205.124H269.023C269.023 205.124 241.174 231.837 239.158 233.739C237.358 235.449 201.162 231.709 193.9 230.944C191.432 230.583 188.941 230.412 186.447 230.433C183.294 230.574 182.733 231.02 179.593 231.059C171.664 231.147 163.753 231.842 155.93 233.139C152.388 233.741 149.08 235.305 146.365 237.659C143.651 240.013 141.635 243.068 140.538 246.489C133.225 269.335 116.659 323.411 113.736 353.787C111.528 357.792 109.534 361.912 107.763 366.129C105.708 371.719 106.206 371.91 106.895 372.038C108.759 372.383 110.877 362.351 111.669 364.776C112.46 367.201 107.648 376.735 109.601 377.016C112.154 377.373 114.183 366.805 114.425 365.963C114.668 365.12 115.931 365.389 115.702 366.18C115.332 367.303 111.745 379.211 114.247 379.594C115.625 379.798 115.778 377.284 115.778 377.284C115.778 377.284 118.331 365.886 119.492 366.116C120.654 366.346 119.416 373.072 118.829 375.318C118.242 377.564 119.058 378.7 120.258 378.151C121.075 377.769 123.028 370.94 123.564 368.72C124.1 366.499 125.44 360.347 127.239 363.908C129.039 367.469 131.77 369.536 132.893 369.587C133.146 369.558 133.385 369.454 133.578 369.288C133.772 369.122 133.911 368.902 133.978 368.657C134.045 368.411 134.038 368.151 133.956 367.909C133.874 367.668 133.722 367.457 133.519 367.303C132.553 366.36 131.724 365.286 131.056 364.112C130.46 363.198 130.028 362.188 129.779 361.126C129.265 359.009 128.966 356.845 128.886 354.668L128.682 353.391C131.54 339.237 139.773 297.694 151.655 271.16L156.53 281.191L158.649 288.619L145.656 320.693L201.073 319.965L192.803 288.134L202.847 254.951C213.708 255.193 241.595 255.602 246.241 253.496C252.086 250.943 282.322 212.757 282.322 212.757C284.293 211.225 286.18 209.589 287.976 207.856C287.976 207.856 289.814 206.311 288.703 205.163Z" fill="#FFBE9D"/>
<path d="M143.218 296.992C144.826 291.504 153.084 264.37 153.084 264.37C153.084 264.37 157.143 286.488 156.07 289.156C155.084 291.439 153.919 293.641 152.586 295.741C143.218 309.997 144.443 317.132 144.443 317.132L201.047 315.409C201.175 307.496 196.491 289.092 195.521 286.156C194.551 283.221 197.78 273.61 197.78 273.61C197.78 273.61 204.161 267.114 203.931 263.77C203.81 260.766 203.439 257.778 202.821 254.836L237.281 256.112L236.196 232.756L186.701 227.804C184.978 232.667 169.395 230.28 169.395 230.28C152.573 230.842 151.527 233.93 144.533 239.367C137.539 244.804 125.963 291.466 125.963 291.466L143.218 296.992Z" fill="#FD7401"/>
<path d="M176.683 291.466C175.702 291.641 174.703 291.692 173.709 291.619C171.858 291.619 169.318 291.491 166.523 291.21C163.728 290.93 161.201 290.534 159.402 290.177C158.409 290.049 157.436 289.8 156.504 289.436C157.502 289.437 158.498 289.531 159.478 289.717C161.29 289.947 163.805 290.266 166.587 290.547C169.369 290.827 171.896 291.019 173.722 291.147C174.716 291.159 175.708 291.266 176.683 291.466Z" fill="#263238"/>
<path d="M180.563 286.654C179.581 287.135 178.544 287.491 177.474 287.713C172.382 289.051 167.129 289.674 161.865 289.564C160.776 289.599 159.686 289.496 158.623 289.258C159.698 289.122 160.782 289.066 161.865 289.092C163.869 289.028 166.625 288.887 169.663 288.53C172.701 288.173 175.406 287.662 177.321 287.254C178.384 286.97 179.468 286.769 180.563 286.654Z" fill="#263238"/>
<path d="M199.605 265.187C199.579 266.16 199.447 267.127 199.209 268.071C198.878 269.845 198.367 272.27 197.716 274.925C197.065 277.579 196.44 280.03 195.878 281.689C195.653 282.639 195.318 283.56 194.883 284.433C194.954 283.463 195.134 282.504 195.419 281.574C195.904 279.583 196.453 277.286 197.065 274.772C197.678 272.257 198.265 269.96 198.75 267.969C198.923 267.011 199.21 266.077 199.605 265.187Z" fill="#263238"/>
<path d="M143.818 293.737C140.865 293.281 137.951 292.603 135.101 291.708C132.188 291.027 129.33 290.131 126.55 289.028C129.501 289.491 132.414 290.169 135.267 291.057C138.18 291.736 141.039 292.632 143.818 293.737Z" fill="#263238"/>
<path d="M203.433 254.555C202.952 254.638 202.46 254.638 201.978 254.555C200.645 254.418 199.336 254.105 198.086 253.623C195.998 252.839 194.097 251.626 192.506 250.063C190.914 248.501 189.667 246.622 188.845 244.549C187.936 242.268 187.548 239.813 187.709 237.363C187.766 235.343 188.371 233.375 189.458 231.671C190.223 230.523 191.365 229.679 192.687 229.284C193.04 229.187 193.405 229.14 193.772 229.144C194.027 229.144 194.155 229.144 194.155 229.144C194.155 229.144 193.619 229.144 192.763 229.489C191.551 229.937 190.522 230.777 189.841 231.875C188.105 234.607 187.62 239.597 189.471 244.255C190.332 246.452 191.68 248.424 193.414 250.024C194.835 251.333 196.472 252.387 198.252 253.138C199.922 253.799 201.659 254.274 203.433 254.555Z" fill="#263238"/>
<path d="M233.184 255.653C232.865 251.739 232.763 247.81 232.878 243.885C232.778 239.963 232.897 236.039 233.235 232.131C233.555 236.04 233.657 239.964 233.542 243.885C233.649 247.811 233.529 251.74 233.184 255.653Z" fill="#263238"/>
<path d="M186.37 229.233C186.51 226.387 186.804 223.171 186.804 223.171C186.804 223.171 193.849 222.393 194.27 215.118C194.691 207.843 194.27 191.06 194.27 191.06L181.507 184.525L167.34 195.667L169.523 232.041L182.515 232.871C183.508 232.898 184.472 232.531 185.194 231.849C185.917 231.167 186.34 230.227 186.37 229.233Z" fill="#FFBE9D"/>
<path d="M187.634 209.362C187.634 209.362 187.634 209.502 187.519 209.668C187.424 209.788 187.301 209.884 187.161 209.946C187.021 210.008 186.868 210.035 186.715 210.025C185.898 210.025 185.106 209.081 184.826 207.983C184.692 207.451 184.692 206.894 184.826 206.362C184.852 206.13 184.936 205.908 185.069 205.716C185.203 205.525 185.383 205.369 185.591 205.265C185.763 205.194 185.956 205.194 186.127 205.265C186.255 205.328 186.358 205.431 186.421 205.558C186.51 205.775 186.421 205.916 186.421 205.903C186.421 205.89 186.421 205.775 186.293 205.648C186.227 205.556 186.129 205.493 186.018 205.469C185.907 205.446 185.792 205.464 185.694 205.52C185.537 205.615 185.407 205.747 185.315 205.906C185.224 206.064 185.174 206.243 185.17 206.426C185.063 206.901 185.063 207.394 185.17 207.868C185.426 208.864 186.115 209.668 186.727 209.745C186.847 209.761 186.969 209.752 187.086 209.719C187.202 209.686 187.31 209.63 187.404 209.553C187.557 209.451 187.608 209.349 187.634 209.362Z" fill="#EB996E"/>
<path d="M198.648 187.129C197.665 183.785 194.104 182.125 190.862 181.207C185.923 179.803 180.588 179.19 175.764 180.964C170.939 182.738 165.145 185.852 165.145 191.174C162.299 190.945 160.665 193.433 159.542 196.522C158.824 198.404 158.394 200.383 158.266 202.393C157.908 209.362 155.956 218.985 151.438 224.09C148.885 226.936 145.35 228.902 143.895 232.45C142.618 235.526 143.282 239.176 142.095 242.29C141.036 245.034 138.7 246.987 136.99 249.373C135.248 252.081 134.222 255.187 134.01 258.4C133.798 261.612 134.406 264.826 135.777 267.739C137.159 270.578 139.103 273.105 141.493 275.168C143.882 277.23 146.667 278.785 149.676 279.736C155.638 281.55 161.995 281.612 167.991 279.915C172.491 278.839 176.689 276.758 180.269 273.827C183.932 270.836 186.449 266.669 187.391 262.034C188.297 256.827 186.842 251.53 185.757 246.349C182.362 229.974 183.332 229.119 187.62 213.918C187.723 213.65 187.774 213.369 187.85 213.101C187.927 212.833 187.965 212.705 188.016 212.501C188.138 211.9 188.202 211.289 188.208 210.676C187.581 210.909 186.901 210.958 186.248 210.818C185.595 210.678 184.995 210.354 184.519 209.885C184.042 209.384 183.71 208.764 183.557 208.09C183.404 207.416 183.437 206.713 183.651 206.056C183.952 205.337 184.401 204.69 184.968 204.156C185.535 203.621 186.209 203.212 186.944 202.955C188.361 202.367 189.879 202.061 191.271 201.41C194.219 200.006 196.261 197.096 197.652 194.046C198.796 191.932 199.149 189.479 198.648 187.129Z" fill="#263238"/>
<path d="M188.144 209.706C188.414 210.105 188.636 210.533 188.808 210.982C189.19 211.787 189.701 212.922 190.263 214.237L190.365 214.48H190.097L188.82 214.594C187.94 214.594 187.199 214.76 186.332 214.748C186.256 214.731 186.186 214.695 186.128 214.643C186.07 214.592 186.026 214.527 186 214.454C185.962 214.338 185.962 214.213 186 214.097C186.029 213.925 186.068 213.754 186.115 213.586L186.344 212.68C186.46 212.075 186.639 211.485 186.88 210.919C186.857 211.535 186.767 212.147 186.612 212.744L186.434 213.65C186.37 213.956 186.255 214.428 186.434 214.39C187.072 214.39 187.978 214.25 188.82 214.199L190.097 214.084L189.931 214.365C189.382 213.088 188.922 211.889 188.654 211.059C188.419 210.635 188.247 210.18 188.144 209.706Z" fill="#FD7401"/>
<path d="M144.443 317.132L201.047 315.409L225.68 411.565L221.149 521.862H191.22L194.883 413.913L172.994 346.972L176.364 526.138L146.115 526.584L142.937 358.177C142.797 353.493 141.265 342.938 141.84 338.293L144.443 317.132Z" fill="#263238"/>
<path d="M180.525 348.337C179.598 348.395 178.668 348.34 177.755 348.171C176.045 347.967 173.709 347.61 171.144 347.099C168.578 346.589 166.281 346.002 164.622 345.529C163.735 345.334 162.877 345.025 162.069 344.61C162.069 344.419 166.23 345.414 171.335 346.448C176.44 347.482 180.55 348.146 180.525 348.337Z" fill="#455A64"/>
<path d="M220.843 515.813C220.843 515.991 214.066 516.144 205.706 516.144C197.346 516.144 190.556 515.991 190.556 515.813C190.556 515.634 197.333 515.481 205.706 515.481C214.078 515.481 220.843 515.621 220.843 515.813Z" fill="#455A64"/>
<path d="M176.096 521.479C176.096 521.671 169.51 521.811 161.393 521.811C153.276 521.811 146.703 521.671 146.703 521.479C146.703 521.288 153.288 521.147 161.393 521.147C169.497 521.147 176.096 521.301 176.096 521.479Z" fill="#455A64"/>
<path d="M172.19 521.02C172.011 521.02 171.22 481.876 170.416 433.594C169.612 385.311 169.14 346.142 169.306 346.142C169.471 346.142 170.288 385.273 171.08 433.581C171.871 481.889 172.381 521.02 172.19 521.02Z" fill="#455A64"/>
<path d="M216.822 515.812C216.808 515.638 216.808 515.463 216.822 515.289V513.758C216.822 512.379 216.924 510.401 217.001 507.887C217.179 502.782 217.435 495.366 217.754 486.279C218.443 468.003 219.413 442.808 220.472 414.998C220.472 414.73 220.472 414.475 220.472 414.245V414.334C213.772 387.532 207.709 363.206 203.306 345.606L198.201 324.79C197.614 322.352 197.167 320.45 196.848 319.123C196.695 318.497 196.593 318.012 196.503 317.642C196.454 317.476 196.424 317.305 196.414 317.132C196.48 317.293 196.532 317.459 196.567 317.63C196.669 317.987 196.797 318.472 196.976 319.085C197.32 320.361 197.818 322.301 198.456 324.726C199.732 329.652 201.532 336.748 203.778 345.491C208.22 363.078 214.346 387.341 221.136 414.181V414.271C221.136 414.5 221.136 414.768 221.136 415.024C220 442.834 218.966 468.015 218.213 486.292C217.817 495.392 217.486 502.756 217.256 507.887C217.128 510.439 217.026 512.379 216.962 513.758C216.962 514.409 216.886 514.919 216.873 515.289C216.875 515.465 216.858 515.64 216.822 515.812Z" fill="#455A64"/>
<path d="M207.058 411.999C204.909 412.706 202.694 413.197 200.447 413.467C197.69 413.939 195.342 414.271 194.283 414.322V414.066C194.627 414.168 194.806 414.232 194.806 414.283C194.806 414.334 194.589 414.283 194.232 414.283H193.466L194.232 414.054C195.227 413.76 197.575 413.275 200.332 412.777C202.543 412.298 204.796 412.037 207.058 411.999Z" fill="#455A64"/>
<path d="M206.535 415.662C204.544 415.753 202.549 415.663 200.575 415.394C198.581 415.353 196.595 415.135 194.64 414.743C198.629 414.417 202.644 414.727 206.535 415.662Z" fill="#455A64"/>
<path opacity="0.2" d="M144.201 319.161C144.871 320.022 145.716 320.732 146.679 321.244C147.642 321.757 148.703 322.06 149.791 322.135C152.071 322.405 154.377 322.362 156.645 322.007C171.258 320.386 186.74 318.893 201.047 315.409C182.528 316.443 162.962 316.098 144.443 317.132L144.252 318.714" fill="black"/>
<g opacity="0.2">
<path d="M163.281 345.261L173.722 385.771L172.994 346.972L163.281 345.261Z" fill="black"/>
</g>
</svg>
